<mxfile host="app.diagrams.net" modified="2020-05-26T01:31:49.889Z" agent="5.0 (Windows NT 10.0; Win64; x64) AppleWebKit/537.36 (KHTML, like Gecko) Chrome/80.0.3987.122 Safari/537.36" etag="QXz14iPTG0PRk--pxG6l" version="13.1.1" type="github" pages="6">
  <diagram id="Y7dvjuWZmGdwIcVkgsC_" name="初始阶段">
    <mxGraphModel dx="981" dy="548" grid="0" gridSize="10" guides="1" tooltips="1" connect="1" arrows="1" fold="1" page="1" pageScale="1" pageWidth="827" pageHeight="1169" math="0" shadow="0">
      <root>
        <mxCell id="0" />
        <mxCell id="1" parent="0" />
        <mxCell id="jSauDKbGyh3IDqAxNgTv-6" value="文件" style="shape=document;whiteSpace=wrap;html=1;boundedLbl=1;" vertex="1" parent="1">
          <mxGeometry x="357" y="110" width="120" height="62" as="geometry" />
        </mxCell>
        <mxCell id="jSauDKbGyh3IDqAxNgTv-5" value="文件" style="shape=document;whiteSpace=wrap;html=1;boundedLbl=1;" vertex="1" parent="1">
          <mxGeometry x="347" y="120" width="120" height="62" as="geometry" />
        </mxCell>
        <mxCell id="jSauDKbGyh3IDqAxNgTv-8" style="edgeStyle=orthogonalEdgeStyle;rounded=0;orthogonalLoop=1;jettySize=auto;html=1;" edge="1" parent="1" source="jSauDKbGyh3IDqAxNgTv-1" target="jSauDKbGyh3IDqAxNgTv-2">
          <mxGeometry relative="1" as="geometry" />
        </mxCell>
        <mxCell id="jSauDKbGyh3IDqAxNgTv-9" style="edgeStyle=orthogonalEdgeStyle;rounded=0;orthogonalLoop=1;jettySize=auto;html=1;" edge="1" parent="1" source="jSauDKbGyh3IDqAxNgTv-1" target="jSauDKbGyh3IDqAxNgTv-7">
          <mxGeometry relative="1" as="geometry">
            <Array as="points">
              <mxPoint x="301" y="216" />
              <mxPoint x="301" y="270" />
            </Array>
          </mxGeometry>
        </mxCell>
        <mxCell id="jSauDKbGyh3IDqAxNgTv-1" value="应用程序" style="shape=parallelogram;perimeter=parallelogramPerimeter;whiteSpace=wrap;html=1;" vertex="1" parent="1">
          <mxGeometry x="145" y="186" width="120" height="60" as="geometry" />
        </mxCell>
        <mxCell id="jSauDKbGyh3IDqAxNgTv-2" value="文件" style="shape=document;whiteSpace=wrap;html=1;boundedLbl=1;" vertex="1" parent="1">
          <mxGeometry x="337" y="132" width="120" height="62" as="geometry" />
        </mxCell>
        <mxCell id="jSauDKbGyh3IDqAxNgTv-7" value="数据库" style="shape=cylinder;whiteSpace=wrap;html=1;boundedLbl=1;backgroundOutline=1;" vertex="1" parent="1">
          <mxGeometry x="357" y="241" width="90" height="57" as="geometry" />
        </mxCell>
      </root>
    </mxGraphModel>
  </diagram>
  <diagram id="-9Z9mB-wm5RWtthPVTKv" name="添加缓存">
    <mxGraphModel dx="981" dy="548" grid="0" gridSize="10" guides="1" tooltips="1" connect="1" arrows="1" fold="1" page="1" pageScale="1" pageWidth="827" pageHeight="1169" math="0" shadow="0">
      <root>
        <mxCell id="Kk-QaXMZZNeeSb5vCQ0b-0" />
        <mxCell id="Kk-QaXMZZNeeSb5vCQ0b-1" parent="Kk-QaXMZZNeeSb5vCQ0b-0" />
        <mxCell id="Fb8NYb6YE5mdC0i7mT3w-27" value="" style="rounded=1;whiteSpace=wrap;html=1;fillColor=#fff2cc;strokeColor=#d6b656;" vertex="1" parent="Kk-QaXMZZNeeSb5vCQ0b-1">
          <mxGeometry x="292" y="170" width="138.5" height="98" as="geometry" />
        </mxCell>
        <mxCell id="Fb8NYb6YE5mdC0i7mT3w-25" value="" style="rounded=1;whiteSpace=wrap;html=1;fillColor=#fff2cc;strokeColor=#d6b656;" vertex="1" parent="Kk-QaXMZZNeeSb5vCQ0b-1">
          <mxGeometry x="306.5" y="190" width="138.5" height="98" as="geometry" />
        </mxCell>
        <mxCell id="Fb8NYb6YE5mdC0i7mT3w-16" value="" style="rounded=0;whiteSpace=wrap;html=1;dashed=1;" vertex="1" parent="Kk-QaXMZZNeeSb5vCQ0b-1">
          <mxGeometry x="146" y="342" width="237" height="219" as="geometry" />
        </mxCell>
        <mxCell id="Fb8NYb6YE5mdC0i7mT3w-13" value="" style="rounded=0;whiteSpace=wrap;html=1;dashed=1;" vertex="1" parent="Kk-QaXMZZNeeSb5vCQ0b-1">
          <mxGeometry x="463" y="436.5" width="232" height="139" as="geometry" />
        </mxCell>
        <mxCell id="Fb8NYb6YE5mdC0i7mT3w-11" value="" style="rounded=0;whiteSpace=wrap;html=1;dashed=1;" vertex="1" parent="Kk-QaXMZZNeeSb5vCQ0b-1">
          <mxGeometry x="463" y="265" width="232" height="139" as="geometry" />
        </mxCell>
        <mxCell id="Fb8NYb6YE5mdC0i7mT3w-0" value="文件" style="shape=document;whiteSpace=wrap;html=1;boundedLbl=1;" vertex="1" parent="Kk-QaXMZZNeeSb5vCQ0b-1">
          <mxGeometry x="529" y="304" width="120" height="62" as="geometry" />
        </mxCell>
        <mxCell id="Fb8NYb6YE5mdC0i7mT3w-1" value="文件" style="shape=document;whiteSpace=wrap;html=1;boundedLbl=1;" vertex="1" parent="Kk-QaXMZZNeeSb5vCQ0b-1">
          <mxGeometry x="519" y="314" width="120" height="62" as="geometry" />
        </mxCell>
        <mxCell id="Fb8NYb6YE5mdC0i7mT3w-7" style="edgeStyle=orthogonalEdgeStyle;rounded=0;orthogonalLoop=1;jettySize=auto;html=1;" edge="1" parent="Kk-QaXMZZNeeSb5vCQ0b-1" source="Fb8NYb6YE5mdC0i7mT3w-4" target="Fb8NYb6YE5mdC0i7mT3w-5">
          <mxGeometry relative="1" as="geometry">
            <Array as="points">
              <mxPoint x="436" y="409" />
              <mxPoint x="436" y="357" />
            </Array>
          </mxGeometry>
        </mxCell>
        <mxCell id="Fb8NYb6YE5mdC0i7mT3w-10" style="edgeStyle=orthogonalEdgeStyle;rounded=0;orthogonalLoop=1;jettySize=auto;html=1;entryX=0;entryY=0.5;entryDx=0;entryDy=0;" edge="1" parent="Kk-QaXMZZNeeSb5vCQ0b-1" source="Fb8NYb6YE5mdC0i7mT3w-4" target="Fb8NYb6YE5mdC0i7mT3w-6">
          <mxGeometry relative="1" as="geometry" />
        </mxCell>
        <mxCell id="Fb8NYb6YE5mdC0i7mT3w-22" style="edgeStyle=orthogonalEdgeStyle;rounded=0;orthogonalLoop=1;jettySize=auto;html=1;" edge="1" parent="Kk-QaXMZZNeeSb5vCQ0b-1" source="Fb8NYb6YE5mdC0i7mT3w-4" target="Fb8NYb6YE5mdC0i7mT3w-9">
          <mxGeometry relative="1" as="geometry" />
        </mxCell>
        <mxCell id="Fb8NYb6YE5mdC0i7mT3w-29" style="edgeStyle=orthogonalEdgeStyle;rounded=0;orthogonalLoop=1;jettySize=auto;html=1;entryX=0;entryY=0.5;entryDx=0;entryDy=0;" edge="1" parent="Kk-QaXMZZNeeSb5vCQ0b-1" source="Fb8NYb6YE5mdC0i7mT3w-4" target="Fb8NYb6YE5mdC0i7mT3w-27">
          <mxGeometry relative="1" as="geometry" />
        </mxCell>
        <mxCell id="Fb8NYb6YE5mdC0i7mT3w-31" style="edgeStyle=orthogonalEdgeStyle;rounded=0;orthogonalLoop=1;jettySize=auto;html=1;entryX=0.006;entryY=0.449;entryDx=0;entryDy=0;entryPerimeter=0;" edge="1" parent="Kk-QaXMZZNeeSb5vCQ0b-1" source="Fb8NYb6YE5mdC0i7mT3w-4" target="Fb8NYb6YE5mdC0i7mT3w-25">
          <mxGeometry relative="1" as="geometry" />
        </mxCell>
        <mxCell id="Fb8NYb6YE5mdC0i7mT3w-4" value="应用程序" style="shape=parallelogram;perimeter=parallelogramPerimeter;whiteSpace=wrap;html=1;" vertex="1" parent="Kk-QaXMZZNeeSb5vCQ0b-1">
          <mxGeometry x="211.5" y="379" width="120" height="60" as="geometry" />
        </mxCell>
        <mxCell id="Fb8NYb6YE5mdC0i7mT3w-5" value="文件" style="shape=document;whiteSpace=wrap;html=1;boundedLbl=1;" vertex="1" parent="Kk-QaXMZZNeeSb5vCQ0b-1">
          <mxGeometry x="509" y="326" width="120" height="62" as="geometry" />
        </mxCell>
        <mxCell id="Fb8NYb6YE5mdC0i7mT3w-6" value="数据库" style="shape=cylinder;whiteSpace=wrap;html=1;boundedLbl=1;backgroundOutline=1;" vertex="1" parent="Kk-QaXMZZNeeSb5vCQ0b-1">
          <mxGeometry x="534" y="492" width="90" height="57" as="geometry" />
        </mxCell>
        <mxCell id="Fb8NYb6YE5mdC0i7mT3w-9" value="本地缓存" style="shape=tape;whiteSpace=wrap;html=1;fillColor=#fff2cc;strokeColor=#d6b656;" vertex="1" parent="Kk-QaXMZZNeeSb5vCQ0b-1">
          <mxGeometry x="224" y="488.5" width="95" height="64" as="geometry" />
        </mxCell>
        <mxCell id="Fb8NYb6YE5mdC0i7mT3w-12" value="文件服务器" style="text;html=1;strokeColor=none;fillColor=none;align=center;verticalAlign=middle;whiteSpace=wrap;rounded=0;dashed=1;" vertex="1" parent="Kk-QaXMZZNeeSb5vCQ0b-1">
          <mxGeometry x="463" y="265" width="94" height="20" as="geometry" />
        </mxCell>
        <mxCell id="Fb8NYb6YE5mdC0i7mT3w-14" value="数据库服务器" style="text;html=1;strokeColor=none;fillColor=none;align=center;verticalAlign=middle;whiteSpace=wrap;rounded=0;dashed=1;" vertex="1" parent="Kk-QaXMZZNeeSb5vCQ0b-1">
          <mxGeometry x="469" y="439" width="94" height="20" as="geometry" />
        </mxCell>
        <mxCell id="Fb8NYb6YE5mdC0i7mT3w-17" value="应用服务器" style="text;html=1;strokeColor=none;fillColor=none;align=center;verticalAlign=middle;whiteSpace=wrap;rounded=0;dashed=1;" vertex="1" parent="Kk-QaXMZZNeeSb5vCQ0b-1">
          <mxGeometry x="146" y="344" width="94" height="20" as="geometry" />
        </mxCell>
        <mxCell id="Fb8NYb6YE5mdC0i7mT3w-23" value="远程分布式缓存" style="shape=tape;whiteSpace=wrap;html=1;fillColor=#fff2cc;strokeColor=#d6b656;" vertex="1" parent="Kk-QaXMZZNeeSb5vCQ0b-1">
          <mxGeometry x="326.5" y="218" width="95" height="64" as="geometry" />
        </mxCell>
        <mxCell id="Fb8NYb6YE5mdC0i7mT3w-26" value="分布式缓存服务器1" style="text;html=1;strokeColor=none;fillColor=none;align=center;verticalAlign=middle;whiteSpace=wrap;rounded=0;dashed=1;" vertex="1" parent="Kk-QaXMZZNeeSb5vCQ0b-1">
          <mxGeometry x="313" y="193" width="108" height="20" as="geometry" />
        </mxCell>
        <mxCell id="Fb8NYb6YE5mdC0i7mT3w-28" value="分布式缓存服务器2" style="text;html=1;strokeColor=none;fillColor=none;align=center;verticalAlign=middle;whiteSpace=wrap;rounded=0;dashed=1;" vertex="1" parent="Kk-QaXMZZNeeSb5vCQ0b-1">
          <mxGeometry x="302" y="170" width="108" height="20" as="geometry" />
        </mxCell>
      </root>
    </mxGraphModel>
  </diagram>
  <diagram id="qRPASRfl05Hdqo-FrFdb" name="应用服务器集群">
    <mxGraphModel dx="1422" dy="794" grid="0" gridSize="10" guides="1" tooltips="1" connect="1" arrows="1" fold="1" page="1" pageScale="1" pageWidth="827" pageHeight="1169" math="0" shadow="0">
      <root>
        <mxCell id="jnsXEXpJkMOaDHBfz1Jl-0" />
        <mxCell id="jnsXEXpJkMOaDHBfz1Jl-1" parent="jnsXEXpJkMOaDHBfz1Jl-0" />
        <mxCell id="FsI4FLZjKwpJPWoqBbWd-24" value="" style="rounded=0;whiteSpace=wrap;html=1;fillColor=#fff2cc;strokeColor=#d6b656;" vertex="1" parent="jnsXEXpJkMOaDHBfz1Jl-1">
          <mxGeometry x="218" y="379" width="237" height="167" as="geometry" />
        </mxCell>
        <mxCell id="FsI4FLZjKwpJPWoqBbWd-0" value="" style="rounded=1;whiteSpace=wrap;html=1;" vertex="1" parent="jnsXEXpJkMOaDHBfz1Jl-1">
          <mxGeometry x="379" y="179" width="138.5" height="98" as="geometry" />
        </mxCell>
        <mxCell id="FsI4FLZjKwpJPWoqBbWd-1" value="" style="rounded=1;whiteSpace=wrap;html=1;" vertex="1" parent="jnsXEXpJkMOaDHBfz1Jl-1">
          <mxGeometry x="393.5" y="199" width="138.5" height="98" as="geometry" />
        </mxCell>
        <mxCell id="FsI4FLZjKwpJPWoqBbWd-22" style="edgeStyle=orthogonalEdgeStyle;rounded=0;orthogonalLoop=1;jettySize=auto;html=1;entryX=0;entryY=0.5;entryDx=0;entryDy=0;" edge="1" parent="jnsXEXpJkMOaDHBfz1Jl-1" source="FsI4FLZjKwpJPWoqBbWd-2" target="FsI4FLZjKwpJPWoqBbWd-0">
          <mxGeometry relative="1" as="geometry" />
        </mxCell>
        <mxCell id="FsI4FLZjKwpJPWoqBbWd-23" style="edgeStyle=orthogonalEdgeStyle;rounded=0;orthogonalLoop=1;jettySize=auto;html=1;entryX=0;entryY=0.5;entryDx=0;entryDy=0;" edge="1" parent="jnsXEXpJkMOaDHBfz1Jl-1" source="FsI4FLZjKwpJPWoqBbWd-2" target="FsI4FLZjKwpJPWoqBbWd-1">
          <mxGeometry relative="1" as="geometry" />
        </mxCell>
        <mxCell id="FsI4FLZjKwpJPWoqBbWd-2" value="" style="rounded=0;whiteSpace=wrap;html=1;fillColor=#fff2cc;strokeColor=#d6b656;" vertex="1" parent="jnsXEXpJkMOaDHBfz1Jl-1">
          <mxGeometry x="233" y="403" width="237" height="167" as="geometry" />
        </mxCell>
        <mxCell id="FsI4FLZjKwpJPWoqBbWd-3" value="" style="rounded=0;whiteSpace=wrap;html=1;dashed=1;" vertex="1" parent="jnsXEXpJkMOaDHBfz1Jl-1">
          <mxGeometry x="550" y="445.5" width="232" height="139" as="geometry" />
        </mxCell>
        <mxCell id="FsI4FLZjKwpJPWoqBbWd-4" value="" style="rounded=0;whiteSpace=wrap;html=1;dashed=1;" vertex="1" parent="jnsXEXpJkMOaDHBfz1Jl-1">
          <mxGeometry x="550" y="274" width="232" height="139" as="geometry" />
        </mxCell>
        <mxCell id="FsI4FLZjKwpJPWoqBbWd-5" value="文件" style="shape=document;whiteSpace=wrap;html=1;boundedLbl=1;" vertex="1" parent="jnsXEXpJkMOaDHBfz1Jl-1">
          <mxGeometry x="616" y="313" width="120" height="62" as="geometry" />
        </mxCell>
        <mxCell id="FsI4FLZjKwpJPWoqBbWd-6" value="文件" style="shape=document;whiteSpace=wrap;html=1;boundedLbl=1;" vertex="1" parent="jnsXEXpJkMOaDHBfz1Jl-1">
          <mxGeometry x="606" y="323" width="120" height="62" as="geometry" />
        </mxCell>
        <mxCell id="FsI4FLZjKwpJPWoqBbWd-7" style="edgeStyle=orthogonalEdgeStyle;rounded=0;orthogonalLoop=1;jettySize=auto;html=1;" edge="1" parent="jnsXEXpJkMOaDHBfz1Jl-1" source="FsI4FLZjKwpJPWoqBbWd-12" target="FsI4FLZjKwpJPWoqBbWd-13">
          <mxGeometry relative="1" as="geometry">
            <Array as="points">
              <mxPoint x="523" y="418" />
              <mxPoint x="523" y="366" />
            </Array>
          </mxGeometry>
        </mxCell>
        <mxCell id="FsI4FLZjKwpJPWoqBbWd-8" style="edgeStyle=orthogonalEdgeStyle;rounded=0;orthogonalLoop=1;jettySize=auto;html=1;entryX=0;entryY=0.5;entryDx=0;entryDy=0;" edge="1" parent="jnsXEXpJkMOaDHBfz1Jl-1" source="FsI4FLZjKwpJPWoqBbWd-12" target="FsI4FLZjKwpJPWoqBbWd-14">
          <mxGeometry relative="1" as="geometry" />
        </mxCell>
        <mxCell id="FsI4FLZjKwpJPWoqBbWd-9" style="edgeStyle=orthogonalEdgeStyle;rounded=0;orthogonalLoop=1;jettySize=auto;html=1;" edge="1" parent="jnsXEXpJkMOaDHBfz1Jl-1" source="FsI4FLZjKwpJPWoqBbWd-12" target="FsI4FLZjKwpJPWoqBbWd-15">
          <mxGeometry relative="1" as="geometry" />
        </mxCell>
        <mxCell id="FsI4FLZjKwpJPWoqBbWd-12" value="应用程序" style="shape=parallelogram;perimeter=parallelogramPerimeter;whiteSpace=wrap;html=1;" vertex="1" parent="jnsXEXpJkMOaDHBfz1Jl-1">
          <mxGeometry x="298.5" y="418" width="120" height="60" as="geometry" />
        </mxCell>
        <mxCell id="FsI4FLZjKwpJPWoqBbWd-13" value="文件" style="shape=document;whiteSpace=wrap;html=1;boundedLbl=1;" vertex="1" parent="jnsXEXpJkMOaDHBfz1Jl-1">
          <mxGeometry x="596" y="335" width="120" height="62" as="geometry" />
        </mxCell>
        <mxCell id="FsI4FLZjKwpJPWoqBbWd-14" value="数据库" style="shape=cylinder;whiteSpace=wrap;html=1;boundedLbl=1;backgroundOutline=1;" vertex="1" parent="jnsXEXpJkMOaDHBfz1Jl-1">
          <mxGeometry x="621" y="501" width="90" height="57" as="geometry" />
        </mxCell>
        <mxCell id="FsI4FLZjKwpJPWoqBbWd-15" value="本地缓存" style="shape=tape;whiteSpace=wrap;html=1;" vertex="1" parent="jnsXEXpJkMOaDHBfz1Jl-1">
          <mxGeometry x="311" y="497.5" width="95" height="64" as="geometry" />
        </mxCell>
        <mxCell id="FsI4FLZjKwpJPWoqBbWd-16" value="文件服务器" style="text;html=1;strokeColor=none;fillColor=none;align=center;verticalAlign=middle;whiteSpace=wrap;rounded=0;dashed=1;" vertex="1" parent="jnsXEXpJkMOaDHBfz1Jl-1">
          <mxGeometry x="550" y="274" width="94" height="20" as="geometry" />
        </mxCell>
        <mxCell id="FsI4FLZjKwpJPWoqBbWd-17" value="数据库服务器" style="text;html=1;strokeColor=none;fillColor=none;align=center;verticalAlign=middle;whiteSpace=wrap;rounded=0;dashed=1;" vertex="1" parent="jnsXEXpJkMOaDHBfz1Jl-1">
          <mxGeometry x="556" y="448" width="94" height="20" as="geometry" />
        </mxCell>
        <mxCell id="FsI4FLZjKwpJPWoqBbWd-18" value="应用服务器1" style="text;html=1;strokeColor=none;fillColor=none;align=center;verticalAlign=middle;whiteSpace=wrap;rounded=0;dashed=1;" vertex="1" parent="jnsXEXpJkMOaDHBfz1Jl-1">
          <mxGeometry x="233" y="403" width="94" height="20" as="geometry" />
        </mxCell>
        <mxCell id="FsI4FLZjKwpJPWoqBbWd-19" value="远程分布式缓存" style="shape=tape;whiteSpace=wrap;html=1;" vertex="1" parent="jnsXEXpJkMOaDHBfz1Jl-1">
          <mxGeometry x="413.5" y="227" width="95" height="64" as="geometry" />
        </mxCell>
        <mxCell id="FsI4FLZjKwpJPWoqBbWd-20" value="分布式缓存服务器1" style="text;html=1;strokeColor=none;fillColor=none;align=center;verticalAlign=middle;whiteSpace=wrap;rounded=0;dashed=1;" vertex="1" parent="jnsXEXpJkMOaDHBfz1Jl-1">
          <mxGeometry x="400" y="202" width="108" height="20" as="geometry" />
        </mxCell>
        <mxCell id="FsI4FLZjKwpJPWoqBbWd-21" value="分布式缓存服务器2" style="text;html=1;strokeColor=none;fillColor=none;align=center;verticalAlign=middle;whiteSpace=wrap;rounded=0;dashed=1;" vertex="1" parent="jnsXEXpJkMOaDHBfz1Jl-1">
          <mxGeometry x="389" y="179" width="108" height="20" as="geometry" />
        </mxCell>
        <mxCell id="FsI4FLZjKwpJPWoqBbWd-25" value="应用服务器2" style="text;html=1;strokeColor=none;fillColor=none;align=center;verticalAlign=middle;whiteSpace=wrap;rounded=0;dashed=1;" vertex="1" parent="jnsXEXpJkMOaDHBfz1Jl-1">
          <mxGeometry x="218" y="379" width="94" height="20" as="geometry" />
        </mxCell>
        <mxCell id="FsI4FLZjKwpJPWoqBbWd-27" style="edgeStyle=orthogonalEdgeStyle;rounded=0;orthogonalLoop=1;jettySize=auto;html=1;entryX=0.001;entryY=0.532;entryDx=0;entryDy=0;entryPerimeter=0;" edge="1" parent="jnsXEXpJkMOaDHBfz1Jl-1" source="FsI4FLZjKwpJPWoqBbWd-26" target="FsI4FLZjKwpJPWoqBbWd-24">
          <mxGeometry relative="1" as="geometry" />
        </mxCell>
        <mxCell id="FsI4FLZjKwpJPWoqBbWd-26" value="负载均衡调度服务器" style="rounded=1;whiteSpace=wrap;html=1;fillColor=#fff2cc;strokeColor=#d6b656;" vertex="1" parent="jnsXEXpJkMOaDHBfz1Jl-1">
          <mxGeometry x="64" y="448" width="120" height="39" as="geometry" />
        </mxCell>
      </root>
    </mxGraphModel>
  </diagram>
  <diagram id="uJUqlxbainl8uxEmmNSQ" name="数据库读写分离">
    <mxGraphModel dx="1875" dy="936" grid="0" gridSize="10" guides="1" tooltips="1" connect="1" arrows="1" fold="1" page="1" pageScale="1" pageWidth="827" pageHeight="1169" math="0" shadow="0">
      <root>
        <mxCell id="FVzJ3zHUSE2hjMfqE5y--0" />
        <mxCell id="FVzJ3zHUSE2hjMfqE5y--1" parent="FVzJ3zHUSE2hjMfqE5y--0" />
        <mxCell id="FVzJ3zHUSE2hjMfqE5y--2" value="" style="rounded=0;whiteSpace=wrap;html=1;" vertex="1" parent="FVzJ3zHUSE2hjMfqE5y--1">
          <mxGeometry x="218" y="379" width="237" height="167" as="geometry" />
        </mxCell>
        <mxCell id="FVzJ3zHUSE2hjMfqE5y--3" value="" style="rounded=1;whiteSpace=wrap;html=1;" vertex="1" parent="FVzJ3zHUSE2hjMfqE5y--1">
          <mxGeometry x="379" y="179" width="138.5" height="98" as="geometry" />
        </mxCell>
        <mxCell id="FVzJ3zHUSE2hjMfqE5y--4" value="" style="rounded=1;whiteSpace=wrap;html=1;" vertex="1" parent="FVzJ3zHUSE2hjMfqE5y--1">
          <mxGeometry x="393.5" y="199" width="138.5" height="98" as="geometry" />
        </mxCell>
        <mxCell id="FVzJ3zHUSE2hjMfqE5y--5" style="edgeStyle=orthogonalEdgeStyle;rounded=0;orthogonalLoop=1;jettySize=auto;html=1;entryX=0;entryY=0.5;entryDx=0;entryDy=0;" edge="1" parent="FVzJ3zHUSE2hjMfqE5y--1" source="FVzJ3zHUSE2hjMfqE5y--7" target="FVzJ3zHUSE2hjMfqE5y--3">
          <mxGeometry relative="1" as="geometry" />
        </mxCell>
        <mxCell id="FVzJ3zHUSE2hjMfqE5y--6" style="edgeStyle=orthogonalEdgeStyle;rounded=0;orthogonalLoop=1;jettySize=auto;html=1;entryX=0;entryY=0.5;entryDx=0;entryDy=0;" edge="1" parent="FVzJ3zHUSE2hjMfqE5y--1" source="FVzJ3zHUSE2hjMfqE5y--7" target="FVzJ3zHUSE2hjMfqE5y--4">
          <mxGeometry relative="1" as="geometry" />
        </mxCell>
        <mxCell id="FVzJ3zHUSE2hjMfqE5y--7" value="" style="rounded=0;whiteSpace=wrap;html=1;" vertex="1" parent="FVzJ3zHUSE2hjMfqE5y--1">
          <mxGeometry x="233" y="403" width="237" height="167" as="geometry" />
        </mxCell>
        <mxCell id="FVzJ3zHUSE2hjMfqE5y--8" value="" style="rounded=0;whiteSpace=wrap;html=1;dashed=1;fillColor=#fff2cc;strokeColor=#d6b656;" vertex="1" parent="FVzJ3zHUSE2hjMfqE5y--1">
          <mxGeometry x="550" y="445.5" width="228" height="212.5" as="geometry" />
        </mxCell>
        <mxCell id="FVzJ3zHUSE2hjMfqE5y--9" value="" style="rounded=0;whiteSpace=wrap;html=1;dashed=1;" vertex="1" parent="FVzJ3zHUSE2hjMfqE5y--1">
          <mxGeometry x="550" y="274" width="232" height="139" as="geometry" />
        </mxCell>
        <mxCell id="FVzJ3zHUSE2hjMfqE5y--10" value="文件" style="shape=document;whiteSpace=wrap;html=1;boundedLbl=1;" vertex="1" parent="FVzJ3zHUSE2hjMfqE5y--1">
          <mxGeometry x="616" y="313" width="120" height="62" as="geometry" />
        </mxCell>
        <mxCell id="FVzJ3zHUSE2hjMfqE5y--11" value="文件" style="shape=document;whiteSpace=wrap;html=1;boundedLbl=1;" vertex="1" parent="FVzJ3zHUSE2hjMfqE5y--1">
          <mxGeometry x="606" y="323" width="120" height="62" as="geometry" />
        </mxCell>
        <mxCell id="FVzJ3zHUSE2hjMfqE5y--12" style="edgeStyle=orthogonalEdgeStyle;rounded=0;orthogonalLoop=1;jettySize=auto;html=1;" edge="1" parent="FVzJ3zHUSE2hjMfqE5y--1" source="FVzJ3zHUSE2hjMfqE5y--15" target="FVzJ3zHUSE2hjMfqE5y--16">
          <mxGeometry relative="1" as="geometry">
            <Array as="points">
              <mxPoint x="523" y="418" />
              <mxPoint x="523" y="366" />
            </Array>
          </mxGeometry>
        </mxCell>
        <mxCell id="FVzJ3zHUSE2hjMfqE5y--13" style="edgeStyle=orthogonalEdgeStyle;rounded=0;orthogonalLoop=1;jettySize=auto;html=1;entryX=0;entryY=0.5;entryDx=0;entryDy=0;" edge="1" parent="FVzJ3zHUSE2hjMfqE5y--1" source="FVzJ3zHUSE2hjMfqE5y--15" target="FVzJ3zHUSE2hjMfqE5y--17">
          <mxGeometry relative="1" as="geometry" />
        </mxCell>
        <mxCell id="FVzJ3zHUSE2hjMfqE5y--32" value="写" style="edgeLabel;html=1;align=center;verticalAlign=middle;resizable=0;points=[];" vertex="1" connectable="0" parent="FVzJ3zHUSE2hjMfqE5y--13">
          <mxGeometry x="0.7755" y="1" relative="1" as="geometry">
            <mxPoint as="offset" />
          </mxGeometry>
        </mxCell>
        <mxCell id="FVzJ3zHUSE2hjMfqE5y--14" style="edgeStyle=orthogonalEdgeStyle;rounded=0;orthogonalLoop=1;jettySize=auto;html=1;" edge="1" parent="FVzJ3zHUSE2hjMfqE5y--1" source="FVzJ3zHUSE2hjMfqE5y--15" target="FVzJ3zHUSE2hjMfqE5y--18">
          <mxGeometry relative="1" as="geometry" />
        </mxCell>
        <mxCell id="FVzJ3zHUSE2hjMfqE5y--15" value="应用程序" style="shape=parallelogram;perimeter=parallelogramPerimeter;whiteSpace=wrap;html=1;" vertex="1" parent="FVzJ3zHUSE2hjMfqE5y--1">
          <mxGeometry x="298.5" y="418" width="120" height="60" as="geometry" />
        </mxCell>
        <mxCell id="FVzJ3zHUSE2hjMfqE5y--16" value="文件" style="shape=document;whiteSpace=wrap;html=1;boundedLbl=1;" vertex="1" parent="FVzJ3zHUSE2hjMfqE5y--1">
          <mxGeometry x="596" y="335" width="120" height="62" as="geometry" />
        </mxCell>
        <mxCell id="FVzJ3zHUSE2hjMfqE5y--31" value="主/从复制" style="edgeStyle=orthogonalEdgeStyle;rounded=0;orthogonalLoop=1;jettySize=auto;html=1;" edge="1" parent="FVzJ3zHUSE2hjMfqE5y--1" source="FVzJ3zHUSE2hjMfqE5y--17" target="FVzJ3zHUSE2hjMfqE5y--30">
          <mxGeometry relative="1" as="geometry" />
        </mxCell>
        <mxCell id="FVzJ3zHUSE2hjMfqE5y--17" value="数据库" style="shape=cylinder;whiteSpace=wrap;html=1;boundedLbl=1;backgroundOutline=1;" vertex="1" parent="FVzJ3zHUSE2hjMfqE5y--1">
          <mxGeometry x="621" y="487" width="90" height="57" as="geometry" />
        </mxCell>
        <mxCell id="FVzJ3zHUSE2hjMfqE5y--18" value="本地缓存" style="shape=tape;whiteSpace=wrap;html=1;" vertex="1" parent="FVzJ3zHUSE2hjMfqE5y--1">
          <mxGeometry x="311" y="497.5" width="95" height="64" as="geometry" />
        </mxCell>
        <mxCell id="FVzJ3zHUSE2hjMfqE5y--19" value="文件服务器" style="text;html=1;strokeColor=none;fillColor=none;align=center;verticalAlign=middle;whiteSpace=wrap;rounded=0;dashed=1;" vertex="1" parent="FVzJ3zHUSE2hjMfqE5y--1">
          <mxGeometry x="550" y="274" width="94" height="20" as="geometry" />
        </mxCell>
        <mxCell id="FVzJ3zHUSE2hjMfqE5y--20" value="数据库服务器" style="text;html=1;strokeColor=none;fillColor=none;align=center;verticalAlign=middle;whiteSpace=wrap;rounded=0;dashed=1;" vertex="1" parent="FVzJ3zHUSE2hjMfqE5y--1">
          <mxGeometry x="556" y="448" width="94" height="20" as="geometry" />
        </mxCell>
        <mxCell id="FVzJ3zHUSE2hjMfqE5y--21" value="应用服务器1" style="text;html=1;strokeColor=none;fillColor=none;align=center;verticalAlign=middle;whiteSpace=wrap;rounded=0;dashed=1;" vertex="1" parent="FVzJ3zHUSE2hjMfqE5y--1">
          <mxGeometry x="233" y="403" width="94" height="20" as="geometry" />
        </mxCell>
        <mxCell id="FVzJ3zHUSE2hjMfqE5y--22" value="远程分布式缓存" style="shape=tape;whiteSpace=wrap;html=1;" vertex="1" parent="FVzJ3zHUSE2hjMfqE5y--1">
          <mxGeometry x="413.5" y="227" width="95" height="64" as="geometry" />
        </mxCell>
        <mxCell id="FVzJ3zHUSE2hjMfqE5y--23" value="分布式缓存服务器1" style="text;html=1;strokeColor=none;fillColor=none;align=center;verticalAlign=middle;whiteSpace=wrap;rounded=0;dashed=1;" vertex="1" parent="FVzJ3zHUSE2hjMfqE5y--1">
          <mxGeometry x="400" y="202" width="108" height="20" as="geometry" />
        </mxCell>
        <mxCell id="FVzJ3zHUSE2hjMfqE5y--24" value="分布式缓存服务器2" style="text;html=1;strokeColor=none;fillColor=none;align=center;verticalAlign=middle;whiteSpace=wrap;rounded=0;dashed=1;" vertex="1" parent="FVzJ3zHUSE2hjMfqE5y--1">
          <mxGeometry x="389" y="179" width="108" height="20" as="geometry" />
        </mxCell>
        <mxCell id="FVzJ3zHUSE2hjMfqE5y--25" value="应用服务器2" style="text;html=1;strokeColor=none;fillColor=none;align=center;verticalAlign=middle;whiteSpace=wrap;rounded=0;dashed=1;" vertex="1" parent="FVzJ3zHUSE2hjMfqE5y--1">
          <mxGeometry x="218" y="379" width="94" height="20" as="geometry" />
        </mxCell>
        <mxCell id="FVzJ3zHUSE2hjMfqE5y--26" style="edgeStyle=orthogonalEdgeStyle;rounded=0;orthogonalLoop=1;jettySize=auto;html=1;entryX=0.001;entryY=0.532;entryDx=0;entryDy=0;entryPerimeter=0;" edge="1" parent="FVzJ3zHUSE2hjMfqE5y--1" source="FVzJ3zHUSE2hjMfqE5y--27" target="FVzJ3zHUSE2hjMfqE5y--2">
          <mxGeometry relative="1" as="geometry" />
        </mxCell>
        <mxCell id="FVzJ3zHUSE2hjMfqE5y--27" value="负载均衡调度服务器" style="rounded=1;whiteSpace=wrap;html=1;" vertex="1" parent="FVzJ3zHUSE2hjMfqE5y--1">
          <mxGeometry x="64" y="448" width="120" height="39" as="geometry" />
        </mxCell>
        <mxCell id="FVzJ3zHUSE2hjMfqE5y--33" style="edgeStyle=orthogonalEdgeStyle;rounded=0;orthogonalLoop=1;jettySize=auto;html=1;exitX=0;exitY=0.5;exitDx=0;exitDy=0;entryX=1;entryY=0.5;entryDx=0;entryDy=0;" edge="1" parent="FVzJ3zHUSE2hjMfqE5y--1" source="FVzJ3zHUSE2hjMfqE5y--28" target="FVzJ3zHUSE2hjMfqE5y--15">
          <mxGeometry relative="1" as="geometry">
            <Array as="points">
              <mxPoint x="519" y="614" />
              <mxPoint x="519" y="448" />
            </Array>
          </mxGeometry>
        </mxCell>
        <mxCell id="FVzJ3zHUSE2hjMfqE5y--34" value="读" style="edgeLabel;html=1;align=center;verticalAlign=middle;resizable=0;points=[];" vertex="1" connectable="0" parent="FVzJ3zHUSE2hjMfqE5y--33">
          <mxGeometry x="-0.7681" relative="1" as="geometry">
            <mxPoint as="offset" />
          </mxGeometry>
        </mxCell>
        <mxCell id="FVzJ3zHUSE2hjMfqE5y--28" value="数据库" style="shape=cylinder;whiteSpace=wrap;html=1;boundedLbl=1;backgroundOutline=1;" vertex="1" parent="FVzJ3zHUSE2hjMfqE5y--1">
          <mxGeometry x="621" y="585" width="90" height="57" as="geometry" />
        </mxCell>
        <mxCell id="FVzJ3zHUSE2hjMfqE5y--29" value="主" style="text;html=1;strokeColor=none;fillColor=none;align=center;verticalAlign=middle;whiteSpace=wrap;rounded=0;" vertex="1" parent="FVzJ3zHUSE2hjMfqE5y--1">
          <mxGeometry x="644" y="487" width="40" height="20" as="geometry" />
        </mxCell>
        <mxCell id="FVzJ3zHUSE2hjMfqE5y--30" value="从" style="text;html=1;strokeColor=none;fillColor=none;align=center;verticalAlign=middle;whiteSpace=wrap;rounded=0;" vertex="1" parent="FVzJ3zHUSE2hjMfqE5y--1">
          <mxGeometry x="646" y="585" width="40" height="20" as="geometry" />
        </mxCell>
      </root>
    </mxGraphModel>
  </diagram>
  <diagram id="_5YQHBEjFcEyZLPSX-EQ" name="CDN-反向代理">
    <mxGraphModel dx="1128" dy="646" grid="0" gridSize="10" guides="1" tooltips="1" connect="1" arrows="1" fold="1" page="1" pageScale="1" pageWidth="827" pageHeight="1169" math="0" shadow="0">
      <root>
        <mxCell id="_yo-O0_jyIJGjIdc3w5Z-0" />
        <mxCell id="_yo-O0_jyIJGjIdc3w5Z-1" parent="_yo-O0_jyIJGjIdc3w5Z-0" />
        <mxCell id="IoW1Cbq4DDLYRjMPZz3z-35" value="" style="rounded=1;whiteSpace=wrap;html=1;fillColor=#ffe6cc;strokeColor=#d79b00;" vertex="1" parent="_yo-O0_jyIJGjIdc3w5Z-1">
          <mxGeometry x="48" y="346.5" width="120" height="39" as="geometry" />
        </mxCell>
        <mxCell id="IoW1Cbq4DDLYRjMPZz3z-34" value="" style="rounded=1;whiteSpace=wrap;html=1;fillColor=#ffe6cc;strokeColor=#d79b00;" vertex="1" parent="_yo-O0_jyIJGjIdc3w5Z-1">
          <mxGeometry x="56" y="353" width="120" height="39" as="geometry" />
        </mxCell>
        <mxCell id="IoW1Cbq4DDLYRjMPZz3z-0" value="" style="rounded=0;whiteSpace=wrap;html=1;" vertex="1" parent="_yo-O0_jyIJGjIdc3w5Z-1">
          <mxGeometry x="218" y="379" width="237" height="167" as="geometry" />
        </mxCell>
        <mxCell id="IoW1Cbq4DDLYRjMPZz3z-1" value="" style="rounded=1;whiteSpace=wrap;html=1;" vertex="1" parent="_yo-O0_jyIJGjIdc3w5Z-1">
          <mxGeometry x="379" y="179" width="138.5" height="98" as="geometry" />
        </mxCell>
        <mxCell id="IoW1Cbq4DDLYRjMPZz3z-2" value="" style="rounded=1;whiteSpace=wrap;html=1;" vertex="1" parent="_yo-O0_jyIJGjIdc3w5Z-1">
          <mxGeometry x="393.5" y="199" width="138.5" height="98" as="geometry" />
        </mxCell>
        <mxCell id="IoW1Cbq4DDLYRjMPZz3z-3" style="edgeStyle=orthogonalEdgeStyle;rounded=0;orthogonalLoop=1;jettySize=auto;html=1;entryX=0;entryY=0.5;entryDx=0;entryDy=0;" edge="1" parent="_yo-O0_jyIJGjIdc3w5Z-1" source="IoW1Cbq4DDLYRjMPZz3z-5" target="IoW1Cbq4DDLYRjMPZz3z-1">
          <mxGeometry relative="1" as="geometry" />
        </mxCell>
        <mxCell id="IoW1Cbq4DDLYRjMPZz3z-4" style="edgeStyle=orthogonalEdgeStyle;rounded=0;orthogonalLoop=1;jettySize=auto;html=1;entryX=0;entryY=0.5;entryDx=0;entryDy=0;" edge="1" parent="_yo-O0_jyIJGjIdc3w5Z-1" source="IoW1Cbq4DDLYRjMPZz3z-5" target="IoW1Cbq4DDLYRjMPZz3z-2">
          <mxGeometry relative="1" as="geometry" />
        </mxCell>
        <mxCell id="IoW1Cbq4DDLYRjMPZz3z-5" value="" style="rounded=0;whiteSpace=wrap;html=1;" vertex="1" parent="_yo-O0_jyIJGjIdc3w5Z-1">
          <mxGeometry x="233" y="403" width="237" height="167" as="geometry" />
        </mxCell>
        <mxCell id="IoW1Cbq4DDLYRjMPZz3z-6" value="" style="rounded=0;whiteSpace=wrap;html=1;dashed=1;" vertex="1" parent="_yo-O0_jyIJGjIdc3w5Z-1">
          <mxGeometry x="550" y="445.5" width="228" height="212.5" as="geometry" />
        </mxCell>
        <mxCell id="IoW1Cbq4DDLYRjMPZz3z-7" value="" style="rounded=0;whiteSpace=wrap;html=1;dashed=1;" vertex="1" parent="_yo-O0_jyIJGjIdc3w5Z-1">
          <mxGeometry x="550" y="274" width="232" height="139" as="geometry" />
        </mxCell>
        <mxCell id="IoW1Cbq4DDLYRjMPZz3z-8" value="文件" style="shape=document;whiteSpace=wrap;html=1;boundedLbl=1;" vertex="1" parent="_yo-O0_jyIJGjIdc3w5Z-1">
          <mxGeometry x="616" y="313" width="120" height="62" as="geometry" />
        </mxCell>
        <mxCell id="IoW1Cbq4DDLYRjMPZz3z-9" value="文件" style="shape=document;whiteSpace=wrap;html=1;boundedLbl=1;" vertex="1" parent="_yo-O0_jyIJGjIdc3w5Z-1">
          <mxGeometry x="606" y="323" width="120" height="62" as="geometry" />
        </mxCell>
        <mxCell id="IoW1Cbq4DDLYRjMPZz3z-10" style="edgeStyle=orthogonalEdgeStyle;rounded=0;orthogonalLoop=1;jettySize=auto;html=1;" edge="1" parent="_yo-O0_jyIJGjIdc3w5Z-1" source="IoW1Cbq4DDLYRjMPZz3z-14" target="IoW1Cbq4DDLYRjMPZz3z-15">
          <mxGeometry relative="1" as="geometry">
            <Array as="points">
              <mxPoint x="523" y="418" />
              <mxPoint x="523" y="366" />
            </Array>
          </mxGeometry>
        </mxCell>
        <mxCell id="IoW1Cbq4DDLYRjMPZz3z-11" style="edgeStyle=orthogonalEdgeStyle;rounded=0;orthogonalLoop=1;jettySize=auto;html=1;entryX=0;entryY=0.5;entryDx=0;entryDy=0;" edge="1" parent="_yo-O0_jyIJGjIdc3w5Z-1" source="IoW1Cbq4DDLYRjMPZz3z-14" target="IoW1Cbq4DDLYRjMPZz3z-17">
          <mxGeometry relative="1" as="geometry" />
        </mxCell>
        <mxCell id="IoW1Cbq4DDLYRjMPZz3z-12" value="写" style="edgeLabel;html=1;align=center;verticalAlign=middle;resizable=0;points=[];" vertex="1" connectable="0" parent="IoW1Cbq4DDLYRjMPZz3z-11">
          <mxGeometry x="0.7755" y="1" relative="1" as="geometry">
            <mxPoint as="offset" />
          </mxGeometry>
        </mxCell>
        <mxCell id="IoW1Cbq4DDLYRjMPZz3z-13" style="edgeStyle=orthogonalEdgeStyle;rounded=0;orthogonalLoop=1;jettySize=auto;html=1;" edge="1" parent="_yo-O0_jyIJGjIdc3w5Z-1" source="IoW1Cbq4DDLYRjMPZz3z-14" target="IoW1Cbq4DDLYRjMPZz3z-18">
          <mxGeometry relative="1" as="geometry" />
        </mxCell>
        <mxCell id="IoW1Cbq4DDLYRjMPZz3z-14" value="应用程序" style="shape=parallelogram;perimeter=parallelogramPerimeter;whiteSpace=wrap;html=1;" vertex="1" parent="_yo-O0_jyIJGjIdc3w5Z-1">
          <mxGeometry x="298.5" y="418" width="120" height="60" as="geometry" />
        </mxCell>
        <mxCell id="IoW1Cbq4DDLYRjMPZz3z-15" value="文件" style="shape=document;whiteSpace=wrap;html=1;boundedLbl=1;" vertex="1" parent="_yo-O0_jyIJGjIdc3w5Z-1">
          <mxGeometry x="596" y="335" width="120" height="62" as="geometry" />
        </mxCell>
        <mxCell id="IoW1Cbq4DDLYRjMPZz3z-16" value="主/从复制" style="edgeStyle=orthogonalEdgeStyle;rounded=0;orthogonalLoop=1;jettySize=auto;html=1;" edge="1" parent="_yo-O0_jyIJGjIdc3w5Z-1" source="IoW1Cbq4DDLYRjMPZz3z-17" target="IoW1Cbq4DDLYRjMPZz3z-32">
          <mxGeometry relative="1" as="geometry" />
        </mxCell>
        <mxCell id="IoW1Cbq4DDLYRjMPZz3z-17" value="数据库" style="shape=cylinder;whiteSpace=wrap;html=1;boundedLbl=1;backgroundOutline=1;" vertex="1" parent="_yo-O0_jyIJGjIdc3w5Z-1">
          <mxGeometry x="621" y="487" width="90" height="57" as="geometry" />
        </mxCell>
        <mxCell id="IoW1Cbq4DDLYRjMPZz3z-18" value="本地缓存" style="shape=tape;whiteSpace=wrap;html=1;" vertex="1" parent="_yo-O0_jyIJGjIdc3w5Z-1">
          <mxGeometry x="311" y="497.5" width="95" height="64" as="geometry" />
        </mxCell>
        <mxCell id="IoW1Cbq4DDLYRjMPZz3z-19" value="文件服务器" style="text;html=1;strokeColor=none;fillColor=none;align=center;verticalAlign=middle;whiteSpace=wrap;rounded=0;dashed=1;" vertex="1" parent="_yo-O0_jyIJGjIdc3w5Z-1">
          <mxGeometry x="550" y="274" width="94" height="20" as="geometry" />
        </mxCell>
        <mxCell id="IoW1Cbq4DDLYRjMPZz3z-20" value="数据库服务器" style="text;html=1;strokeColor=none;fillColor=none;align=center;verticalAlign=middle;whiteSpace=wrap;rounded=0;dashed=1;" vertex="1" parent="_yo-O0_jyIJGjIdc3w5Z-1">
          <mxGeometry x="556" y="448" width="94" height="20" as="geometry" />
        </mxCell>
        <mxCell id="IoW1Cbq4DDLYRjMPZz3z-21" value="应用服务器1" style="text;html=1;strokeColor=none;fillColor=none;align=center;verticalAlign=middle;whiteSpace=wrap;rounded=0;dashed=1;" vertex="1" parent="_yo-O0_jyIJGjIdc3w5Z-1">
          <mxGeometry x="233" y="403" width="94" height="20" as="geometry" />
        </mxCell>
        <mxCell id="IoW1Cbq4DDLYRjMPZz3z-22" value="远程分布式缓存" style="shape=tape;whiteSpace=wrap;html=1;" vertex="1" parent="_yo-O0_jyIJGjIdc3w5Z-1">
          <mxGeometry x="413.5" y="227" width="95" height="64" as="geometry" />
        </mxCell>
        <mxCell id="IoW1Cbq4DDLYRjMPZz3z-23" value="分布式缓存服务器1" style="text;html=1;strokeColor=none;fillColor=none;align=center;verticalAlign=middle;whiteSpace=wrap;rounded=0;dashed=1;" vertex="1" parent="_yo-O0_jyIJGjIdc3w5Z-1">
          <mxGeometry x="400" y="202" width="108" height="20" as="geometry" />
        </mxCell>
        <mxCell id="IoW1Cbq4DDLYRjMPZz3z-24" value="分布式缓存服务器2" style="text;html=1;strokeColor=none;fillColor=none;align=center;verticalAlign=middle;whiteSpace=wrap;rounded=0;dashed=1;" vertex="1" parent="_yo-O0_jyIJGjIdc3w5Z-1">
          <mxGeometry x="389" y="179" width="108" height="20" as="geometry" />
        </mxCell>
        <mxCell id="IoW1Cbq4DDLYRjMPZz3z-25" value="应用服务器2" style="text;html=1;strokeColor=none;fillColor=none;align=center;verticalAlign=middle;whiteSpace=wrap;rounded=0;dashed=1;" vertex="1" parent="_yo-O0_jyIJGjIdc3w5Z-1">
          <mxGeometry x="218" y="379" width="94" height="20" as="geometry" />
        </mxCell>
        <mxCell id="IoW1Cbq4DDLYRjMPZz3z-26" style="edgeStyle=orthogonalEdgeStyle;rounded=0;orthogonalLoop=1;jettySize=auto;html=1;entryX=0.001;entryY=0.532;entryDx=0;entryDy=0;entryPerimeter=0;" edge="1" parent="_yo-O0_jyIJGjIdc3w5Z-1" source="IoW1Cbq4DDLYRjMPZz3z-27" target="IoW1Cbq4DDLYRjMPZz3z-0">
          <mxGeometry relative="1" as="geometry" />
        </mxCell>
        <mxCell id="IoW1Cbq4DDLYRjMPZz3z-27" value="负载均衡调度服务器" style="rounded=1;whiteSpace=wrap;html=1;" vertex="1" parent="_yo-O0_jyIJGjIdc3w5Z-1">
          <mxGeometry x="64" y="448" width="120" height="39" as="geometry" />
        </mxCell>
        <mxCell id="IoW1Cbq4DDLYRjMPZz3z-28" style="edgeStyle=orthogonalEdgeStyle;rounded=0;orthogonalLoop=1;jettySize=auto;html=1;exitX=0;exitY=0.5;exitDx=0;exitDy=0;entryX=1;entryY=0.5;entryDx=0;entryDy=0;" edge="1" parent="_yo-O0_jyIJGjIdc3w5Z-1" source="IoW1Cbq4DDLYRjMPZz3z-30" target="IoW1Cbq4DDLYRjMPZz3z-14">
          <mxGeometry relative="1" as="geometry">
            <Array as="points">
              <mxPoint x="519" y="614" />
              <mxPoint x="519" y="448" />
            </Array>
          </mxGeometry>
        </mxCell>
        <mxCell id="IoW1Cbq4DDLYRjMPZz3z-29" value="读" style="edgeLabel;html=1;align=center;verticalAlign=middle;resizable=0;points=[];" vertex="1" connectable="0" parent="IoW1Cbq4DDLYRjMPZz3z-28">
          <mxGeometry x="-0.7681" relative="1" as="geometry">
            <mxPoint as="offset" />
          </mxGeometry>
        </mxCell>
        <mxCell id="IoW1Cbq4DDLYRjMPZz3z-30" value="数据库" style="shape=cylinder;whiteSpace=wrap;html=1;boundedLbl=1;backgroundOutline=1;" vertex="1" parent="_yo-O0_jyIJGjIdc3w5Z-1">
          <mxGeometry x="621" y="585" width="90" height="57" as="geometry" />
        </mxCell>
        <mxCell id="IoW1Cbq4DDLYRjMPZz3z-31" value="主" style="text;html=1;strokeColor=none;fillColor=none;align=center;verticalAlign=middle;whiteSpace=wrap;rounded=0;" vertex="1" parent="_yo-O0_jyIJGjIdc3w5Z-1">
          <mxGeometry x="644" y="487" width="40" height="20" as="geometry" />
        </mxCell>
        <mxCell id="IoW1Cbq4DDLYRjMPZz3z-32" value="从" style="text;html=1;strokeColor=none;fillColor=none;align=center;verticalAlign=middle;whiteSpace=wrap;rounded=0;" vertex="1" parent="_yo-O0_jyIJGjIdc3w5Z-1">
          <mxGeometry x="646" y="585" width="40" height="20" as="geometry" />
        </mxCell>
        <mxCell id="IoW1Cbq4DDLYRjMPZz3z-40" style="edgeStyle=orthogonalEdgeStyle;rounded=0;orthogonalLoop=1;jettySize=auto;html=1;" edge="1" parent="_yo-O0_jyIJGjIdc3w5Z-1" source="IoW1Cbq4DDLYRjMPZz3z-33" target="IoW1Cbq4DDLYRjMPZz3z-27">
          <mxGeometry relative="1" as="geometry" />
        </mxCell>
        <mxCell id="IoW1Cbq4DDLYRjMPZz3z-33" value="反向代理服务器1" style="rounded=1;whiteSpace=wrap;html=1;fillColor=#ffe6cc;strokeColor=#d79b00;" vertex="1" parent="_yo-O0_jyIJGjIdc3w5Z-1">
          <mxGeometry x="64" y="360" width="120" height="39" as="geometry" />
        </mxCell>
        <mxCell id="IoW1Cbq4DDLYRjMPZz3z-36" value="" style="rounded=1;whiteSpace=wrap;html=1;fillColor=#ffe6cc;strokeColor=#d79b00;" vertex="1" parent="_yo-O0_jyIJGjIdc3w5Z-1">
          <mxGeometry x="41" y="270.5" width="120" height="39" as="geometry" />
        </mxCell>
        <mxCell id="IoW1Cbq4DDLYRjMPZz3z-37" value="" style="rounded=1;whiteSpace=wrap;html=1;fillColor=#ffe6cc;strokeColor=#d79b00;" vertex="1" parent="_yo-O0_jyIJGjIdc3w5Z-1">
          <mxGeometry x="49" y="277" width="120" height="39" as="geometry" />
        </mxCell>
        <mxCell id="IoW1Cbq4DDLYRjMPZz3z-39" style="edgeStyle=orthogonalEdgeStyle;rounded=0;orthogonalLoop=1;jettySize=auto;html=1;entryX=0.576;entryY=0.033;entryDx=0;entryDy=0;entryPerimeter=0;fillColor=#ffe6cc;strokeColor=#d79b00;" edge="1" parent="_yo-O0_jyIJGjIdc3w5Z-1" source="IoW1Cbq4DDLYRjMPZz3z-38" target="IoW1Cbq4DDLYRjMPZz3z-35">
          <mxGeometry relative="1" as="geometry" />
        </mxCell>
        <mxCell id="IoW1Cbq4DDLYRjMPZz3z-38" value="CDN服务器1" style="rounded=1;whiteSpace=wrap;html=1;fillColor=#ffe6cc;strokeColor=#d79b00;" vertex="1" parent="_yo-O0_jyIJGjIdc3w5Z-1">
          <mxGeometry x="57" y="284" width="120" height="39" as="geometry" />
        </mxCell>
      </root>
    </mxGraphModel>
  </diagram>
  <diagram id="JEKWn452ahUtFfQnUQXC" name="Page-6">
    <mxGraphModel dx="1635" dy="936" grid="0" gridSize="10" guides="1" tooltips="1" connect="1" arrows="1" fold="1" page="1" pageScale="1" pageWidth="827" pageHeight="1169" math="0" shadow="0">
      <root>
        <mxCell id="M1JHg7gmMP5DMXiUNGzZ-0" />
        <mxCell id="M1JHg7gmMP5DMXiUNGzZ-1" parent="M1JHg7gmMP5DMXiUNGzZ-0" />
        <mxCell id="M1JHg7gmMP5DMXiUNGzZ-2" value="" style="rounded=1;whiteSpace=wrap;html=1;" vertex="1" parent="M1JHg7gmMP5DMXiUNGzZ-1">
          <mxGeometry x="48" y="346.5" width="120" height="39" as="geometry" />
        </mxCell>
        <mxCell id="M1JHg7gmMP5DMXiUNGzZ-3" value="" style="rounded=1;whiteSpace=wrap;html=1;" vertex="1" parent="M1JHg7gmMP5DMXiUNGzZ-1">
          <mxGeometry x="56" y="353" width="120" height="39" as="geometry" />
        </mxCell>
        <mxCell id="M1JHg7gmMP5DMXiUNGzZ-4" value="" style="rounded=0;whiteSpace=wrap;html=1;" vertex="1" parent="M1JHg7gmMP5DMXiUNGzZ-1">
          <mxGeometry x="218" y="379" width="237" height="167" as="geometry" />
        </mxCell>
        <mxCell id="M1JHg7gmMP5DMXiUNGzZ-5" value="" style="rounded=1;whiteSpace=wrap;html=1;" vertex="1" parent="M1JHg7gmMP5DMXiUNGzZ-1">
          <mxGeometry x="379" y="179" width="138.5" height="98" as="geometry" />
        </mxCell>
        <mxCell id="M1JHg7gmMP5DMXiUNGzZ-6" value="" style="rounded=1;whiteSpace=wrap;html=1;" vertex="1" parent="M1JHg7gmMP5DMXiUNGzZ-1">
          <mxGeometry x="393.5" y="199" width="138.5" height="98" as="geometry" />
        </mxCell>
        <mxCell id="M1JHg7gmMP5DMXiUNGzZ-7" style="edgeStyle=orthogonalEdgeStyle;rounded=0;orthogonalLoop=1;jettySize=auto;html=1;entryX=0;entryY=0.5;entryDx=0;entryDy=0;" edge="1" parent="M1JHg7gmMP5DMXiUNGzZ-1" source="M1JHg7gmMP5DMXiUNGzZ-9" target="M1JHg7gmMP5DMXiUNGzZ-5">
          <mxGeometry relative="1" as="geometry" />
        </mxCell>
        <mxCell id="M1JHg7gmMP5DMXiUNGzZ-8" style="edgeStyle=orthogonalEdgeStyle;rounded=0;orthogonalLoop=1;jettySize=auto;html=1;entryX=0;entryY=0.5;entryDx=0;entryDy=0;" edge="1" parent="M1JHg7gmMP5DMXiUNGzZ-1" source="M1JHg7gmMP5DMXiUNGzZ-9" target="M1JHg7gmMP5DMXiUNGzZ-6">
          <mxGeometry relative="1" as="geometry" />
        </mxCell>
        <mxCell id="M1JHg7gmMP5DMXiUNGzZ-9" value="" style="rounded=0;whiteSpace=wrap;html=1;" vertex="1" parent="M1JHg7gmMP5DMXiUNGzZ-1">
          <mxGeometry x="233" y="403" width="237" height="167" as="geometry" />
        </mxCell>
        <mxCell id="M1JHg7gmMP5DMXiUNGzZ-10" value="" style="rounded=0;whiteSpace=wrap;html=1;dashed=1;" vertex="1" parent="M1JHg7gmMP5DMXiUNGzZ-1">
          <mxGeometry x="550" y="445.5" width="228" height="212.5" as="geometry" />
        </mxCell>
        <mxCell id="M1JHg7gmMP5DMXiUNGzZ-11" value="" style="rounded=0;whiteSpace=wrap;html=1;dashed=1;" vertex="1" parent="M1JHg7gmMP5DMXiUNGzZ-1">
          <mxGeometry x="550" y="274" width="232" height="139" as="geometry" />
        </mxCell>
        <mxCell id="M1JHg7gmMP5DMXiUNGzZ-12" value="文件" style="shape=document;whiteSpace=wrap;html=1;boundedLbl=1;" vertex="1" parent="M1JHg7gmMP5DMXiUNGzZ-1">
          <mxGeometry x="616" y="313" width="120" height="62" as="geometry" />
        </mxCell>
        <mxCell id="M1JHg7gmMP5DMXiUNGzZ-13" value="文件" style="shape=document;whiteSpace=wrap;html=1;boundedLbl=1;" vertex="1" parent="M1JHg7gmMP5DMXiUNGzZ-1">
          <mxGeometry x="606" y="323" width="120" height="62" as="geometry" />
        </mxCell>
        <mxCell id="M1JHg7gmMP5DMXiUNGzZ-14" style="edgeStyle=orthogonalEdgeStyle;rounded=0;orthogonalLoop=1;jettySize=auto;html=1;" edge="1" parent="M1JHg7gmMP5DMXiUNGzZ-1" source="M1JHg7gmMP5DMXiUNGzZ-18" target="M1JHg7gmMP5DMXiUNGzZ-19">
          <mxGeometry relative="1" as="geometry">
            <Array as="points">
              <mxPoint x="523" y="418" />
              <mxPoint x="523" y="366" />
            </Array>
          </mxGeometry>
        </mxCell>
        <mxCell id="M1JHg7gmMP5DMXiUNGzZ-15" style="edgeStyle=orthogonalEdgeStyle;rounded=0;orthogonalLoop=1;jettySize=auto;html=1;entryX=0;entryY=0.5;entryDx=0;entryDy=0;" edge="1" parent="M1JHg7gmMP5DMXiUNGzZ-1" source="M1JHg7gmMP5DMXiUNGzZ-18" target="M1JHg7gmMP5DMXiUNGzZ-21">
          <mxGeometry relative="1" as="geometry" />
        </mxCell>
        <mxCell id="M1JHg7gmMP5DMXiUNGzZ-16" value="写" style="edgeLabel;html=1;align=center;verticalAlign=middle;resizable=0;points=[];" vertex="1" connectable="0" parent="M1JHg7gmMP5DMXiUNGzZ-15">
          <mxGeometry x="0.7755" y="1" relative="1" as="geometry">
            <mxPoint as="offset" />
          </mxGeometry>
        </mxCell>
        <mxCell id="M1JHg7gmMP5DMXiUNGzZ-17" style="edgeStyle=orthogonalEdgeStyle;rounded=0;orthogonalLoop=1;jettySize=auto;html=1;" edge="1" parent="M1JHg7gmMP5DMXiUNGzZ-1" source="M1JHg7gmMP5DMXiUNGzZ-18" target="M1JHg7gmMP5DMXiUNGzZ-22">
          <mxGeometry relative="1" as="geometry" />
        </mxCell>
        <mxCell id="M1JHg7gmMP5DMXiUNGzZ-18" value="应用程序" style="shape=parallelogram;perimeter=parallelogramPerimeter;whiteSpace=wrap;html=1;" vertex="1" parent="M1JHg7gmMP5DMXiUNGzZ-1">
          <mxGeometry x="298.5" y="418" width="120" height="60" as="geometry" />
        </mxCell>
        <mxCell id="M1JHg7gmMP5DMXiUNGzZ-19" value="文件" style="shape=document;whiteSpace=wrap;html=1;boundedLbl=1;" vertex="1" parent="M1JHg7gmMP5DMXiUNGzZ-1">
          <mxGeometry x="596" y="335" width="120" height="62" as="geometry" />
        </mxCell>
        <mxCell id="M1JHg7gmMP5DMXiUNGzZ-20" value="主/从复制" style="edgeStyle=orthogonalEdgeStyle;rounded=0;orthogonalLoop=1;jettySize=auto;html=1;" edge="1" parent="M1JHg7gmMP5DMXiUNGzZ-1" source="M1JHg7gmMP5DMXiUNGzZ-21" target="M1JHg7gmMP5DMXiUNGzZ-36">
          <mxGeometry relative="1" as="geometry" />
        </mxCell>
        <mxCell id="M1JHg7gmMP5DMXiUNGzZ-21" value="数据库" style="shape=cylinder;whiteSpace=wrap;html=1;boundedLbl=1;backgroundOutline=1;" vertex="1" parent="M1JHg7gmMP5DMXiUNGzZ-1">
          <mxGeometry x="621" y="487" width="90" height="57" as="geometry" />
        </mxCell>
        <mxCell id="M1JHg7gmMP5DMXiUNGzZ-22" value="本地缓存" style="shape=tape;whiteSpace=wrap;html=1;" vertex="1" parent="M1JHg7gmMP5DMXiUNGzZ-1">
          <mxGeometry x="311" y="497.5" width="95" height="64" as="geometry" />
        </mxCell>
        <mxCell id="M1JHg7gmMP5DMXiUNGzZ-23" value="文件服务器" style="text;html=1;strokeColor=none;fillColor=none;align=center;verticalAlign=middle;whiteSpace=wrap;rounded=0;dashed=1;" vertex="1" parent="M1JHg7gmMP5DMXiUNGzZ-1">
          <mxGeometry x="550" y="274" width="94" height="20" as="geometry" />
        </mxCell>
        <mxCell id="M1JHg7gmMP5DMXiUNGzZ-24" value="数据库服务器" style="text;html=1;strokeColor=none;fillColor=none;align=center;verticalAlign=middle;whiteSpace=wrap;rounded=0;dashed=1;" vertex="1" parent="M1JHg7gmMP5DMXiUNGzZ-1">
          <mxGeometry x="556" y="448" width="94" height="20" as="geometry" />
        </mxCell>
        <mxCell id="M1JHg7gmMP5DMXiUNGzZ-25" value="应用服务器1" style="text;html=1;strokeColor=none;fillColor=none;align=center;verticalAlign=middle;whiteSpace=wrap;rounded=0;dashed=1;" vertex="1" parent="M1JHg7gmMP5DMXiUNGzZ-1">
          <mxGeometry x="233" y="403" width="94" height="20" as="geometry" />
        </mxCell>
        <mxCell id="M1JHg7gmMP5DMXiUNGzZ-26" value="远程分布式缓存" style="shape=tape;whiteSpace=wrap;html=1;" vertex="1" parent="M1JHg7gmMP5DMXiUNGzZ-1">
          <mxGeometry x="413.5" y="227" width="95" height="64" as="geometry" />
        </mxCell>
        <mxCell id="M1JHg7gmMP5DMXiUNGzZ-27" value="分布式缓存服务器1" style="text;html=1;strokeColor=none;fillColor=none;align=center;verticalAlign=middle;whiteSpace=wrap;rounded=0;dashed=1;" vertex="1" parent="M1JHg7gmMP5DMXiUNGzZ-1">
          <mxGeometry x="400" y="202" width="108" height="20" as="geometry" />
        </mxCell>
        <mxCell id="M1JHg7gmMP5DMXiUNGzZ-28" value="分布式缓存服务器2" style="text;html=1;strokeColor=none;fillColor=none;align=center;verticalAlign=middle;whiteSpace=wrap;rounded=0;dashed=1;" vertex="1" parent="M1JHg7gmMP5DMXiUNGzZ-1">
          <mxGeometry x="389" y="179" width="108" height="20" as="geometry" />
        </mxCell>
        <mxCell id="M1JHg7gmMP5DMXiUNGzZ-29" value="应用服务器2" style="text;html=1;strokeColor=none;fillColor=none;align=center;verticalAlign=middle;whiteSpace=wrap;rounded=0;dashed=1;" vertex="1" parent="M1JHg7gmMP5DMXiUNGzZ-1">
          <mxGeometry x="218" y="379" width="94" height="20" as="geometry" />
        </mxCell>
        <mxCell id="M1JHg7gmMP5DMXiUNGzZ-30" style="edgeStyle=orthogonalEdgeStyle;rounded=0;orthogonalLoop=1;jettySize=auto;html=1;entryX=0.001;entryY=0.532;entryDx=0;entryDy=0;entryPerimeter=0;" edge="1" parent="M1JHg7gmMP5DMXiUNGzZ-1" source="M1JHg7gmMP5DMXiUNGzZ-31" target="M1JHg7gmMP5DMXiUNGzZ-4">
          <mxGeometry relative="1" as="geometry" />
        </mxCell>
        <mxCell id="M1JHg7gmMP5DMXiUNGzZ-31" value="负载均衡调度服务器" style="rounded=1;whiteSpace=wrap;html=1;" vertex="1" parent="M1JHg7gmMP5DMXiUNGzZ-1">
          <mxGeometry x="64" y="448" width="120" height="39" as="geometry" />
        </mxCell>
        <mxCell id="M1JHg7gmMP5DMXiUNGzZ-32" style="edgeStyle=orthogonalEdgeStyle;rounded=0;orthogonalLoop=1;jettySize=auto;html=1;exitX=0;exitY=0.5;exitDx=0;exitDy=0;entryX=1;entryY=0.5;entryDx=0;entryDy=0;" edge="1" parent="M1JHg7gmMP5DMXiUNGzZ-1" source="M1JHg7gmMP5DMXiUNGzZ-34" target="M1JHg7gmMP5DMXiUNGzZ-18">
          <mxGeometry relative="1" as="geometry">
            <Array as="points">
              <mxPoint x="519" y="614" />
              <mxPoint x="519" y="448" />
            </Array>
          </mxGeometry>
        </mxCell>
        <mxCell id="M1JHg7gmMP5DMXiUNGzZ-33" value="读" style="edgeLabel;html=1;align=center;verticalAlign=middle;resizable=0;points=[];" vertex="1" connectable="0" parent="M1JHg7gmMP5DMXiUNGzZ-32">
          <mxGeometry x="-0.7681" relative="1" as="geometry">
            <mxPoint as="offset" />
          </mxGeometry>
        </mxCell>
        <mxCell id="M1JHg7gmMP5DMXiUNGzZ-34" value="数据库" style="shape=cylinder;whiteSpace=wrap;html=1;boundedLbl=1;backgroundOutline=1;" vertex="1" parent="M1JHg7gmMP5DMXiUNGzZ-1">
          <mxGeometry x="621" y="585" width="90" height="57" as="geometry" />
        </mxCell>
        <mxCell id="M1JHg7gmMP5DMXiUNGzZ-35" value="主" style="text;html=1;strokeColor=none;fillColor=none;align=center;verticalAlign=middle;whiteSpace=wrap;rounded=0;" vertex="1" parent="M1JHg7gmMP5DMXiUNGzZ-1">
          <mxGeometry x="644" y="487" width="40" height="20" as="geometry" />
        </mxCell>
        <mxCell id="M1JHg7gmMP5DMXiUNGzZ-36" value="从" style="text;html=1;strokeColor=none;fillColor=none;align=center;verticalAlign=middle;whiteSpace=wrap;rounded=0;" vertex="1" parent="M1JHg7gmMP5DMXiUNGzZ-1">
          <mxGeometry x="646" y="585" width="40" height="20" as="geometry" />
        </mxCell>
        <mxCell id="M1JHg7gmMP5DMXiUNGzZ-37" style="edgeStyle=orthogonalEdgeStyle;rounded=0;orthogonalLoop=1;jettySize=auto;html=1;" edge="1" parent="M1JHg7gmMP5DMXiUNGzZ-1" source="M1JHg7gmMP5DMXiUNGzZ-38" target="M1JHg7gmMP5DMXiUNGzZ-31">
          <mxGeometry relative="1" as="geometry" />
        </mxCell>
        <mxCell id="M1JHg7gmMP5DMXiUNGzZ-38" value="反向代理服务器1" style="rounded=1;whiteSpace=wrap;html=1;" vertex="1" parent="M1JHg7gmMP5DMXiUNGzZ-1">
          <mxGeometry x="64" y="360" width="120" height="39" as="geometry" />
        </mxCell>
        <mxCell id="M1JHg7gmMP5DMXiUNGzZ-39" value="" style="rounded=1;whiteSpace=wrap;html=1;" vertex="1" parent="M1JHg7gmMP5DMXiUNGzZ-1">
          <mxGeometry x="41" y="270.5" width="120" height="39" as="geometry" />
        </mxCell>
        <mxCell id="M1JHg7gmMP5DMXiUNGzZ-40" value="" style="rounded=1;whiteSpace=wrap;html=1;" vertex="1" parent="M1JHg7gmMP5DMXiUNGzZ-1">
          <mxGeometry x="49" y="277" width="120" height="39" as="geometry" />
        </mxCell>
        <mxCell id="M1JHg7gmMP5DMXiUNGzZ-41" style="edgeStyle=orthogonalEdgeStyle;rounded=0;orthogonalLoop=1;jettySize=auto;html=1;entryX=0.576;entryY=0.033;entryDx=0;entryDy=0;entryPerimeter=0;" edge="1" parent="M1JHg7gmMP5DMXiUNGzZ-1" source="M1JHg7gmMP5DMXiUNGzZ-42" target="M1JHg7gmMP5DMXiUNGzZ-2">
          <mxGeometry relative="1" as="geometry" />
        </mxCell>
        <mxCell id="M1JHg7gmMP5DMXiUNGzZ-42" value="CDN服务器1" style="rounded=1;whiteSpace=wrap;html=1;" vertex="1" parent="M1JHg7gmMP5DMXiUNGzZ-1">
          <mxGeometry x="57" y="284" width="120" height="39" as="geometry" />
        </mxCell>
      </root>
    </mxGraphModel>
  </diagram>
</mxfile>
